<svg width="200" height="200" viewBox="0 0 200 200" stroke="#235fa7" fill="none" stroke-width="2.5" stroke-linecap="round" stroke-linejoin="round"  xmlns="http://www.w3.org/2000/svg">
    <path fill="#ffffff" stroke="none" transform="translate(-10,-10)" d="m108.078 81.112.44 1.74 1.634-.742 28.171-12.773-18.722 24.623-1.086 1.428 1.598.816 27.551 14.061-30.923.715-1.794.041.359 1.758 6.184 30.307-19.839-23.731-1.151-1.377-1.15 1.377-19.84 23.731 6.184-30.307.359-1.758-1.794-.041-30.923-.715 27.55-14.061 1.599-.816-1.086-1.428-18.722-24.623L90.848 82.11l1.635.742.44-1.74 7.577-29.99 7.578 29.99Z"/><path d="m108.078 81.112.44 1.74 1.634-.742 28.171-12.773-18.722 24.623-1.086 1.428 1.598.816 27.551 14.061-30.923.715-1.794.041.359 1.758 6.184 30.307-19.839-23.731-1.151-1.377-1.15 1.377-19.84 23.731 6.184-30.307.359-1.758-1.794-.041-30.923-.715 27.55-14.061 1.599-.816-1.086-1.428-18.722-24.623L90.848 82.11l1.635.742.44-1.74 7.577-29.99 7.578 29.99Z"/>
</svg>